<?xml version="1.0" encoding="utf-8"?>
<!-- Generator: Adobe Illustrator 16.0.0, SVG Export Plug-In . SVG Version: 6.00 Build 0)  -->
<!DOCTYPE svg PUBLIC "-//W3C//DTD SVG 1.1//EN" "http://www.w3.org/Graphics/SVG/1.1/DTD/svg11.dtd">
<svg version="1.1" id="Layer_1" xmlns="http://www.w3.org/2000/svg" xmlns:xlink="http://www.w3.org/1999/xlink" x="0px" y="0px"
	 width="77.754px" height="71.15px" viewBox="0 0 77.754 71.15" enable-background="new 0 0 77.754 71.15" xml:space="preserve">
<g>
	<path fill="#FFFFFF" d="M1.587,25.955c0.19,0,0.392-0.046,0.598-0.138l5.798-2.577c0.499-0.222,1.167-0.681,1.553-1.067L25.37,6.34
		c0.305-0.305,0.473-0.711,0.473-1.144c0-0.433-0.168-0.839-0.473-1.144l-2.898-2.899c-0.305-0.304-0.71-0.472-1.144-0.472
		c-0.432,0-0.838,0.168-1.143,0.473L3.948,17.391c-0.391,0.391-0.845,1.072-1.056,1.583l-2.214,5.376
		c-0.24,0.584-0.07,0.978,0.052,1.161C0.919,25.793,1.231,25.955,1.587,25.955z M8.394,21.029L8.394,21.029l-2.898-2.898
		L18.903,4.722l2.899,2.899L8.394,21.029z M21.328,2.297l2.899,2.899l-1.282,1.282L20.046,3.58L21.328,2.297z M4.388,19.59
		c0.023-0.057,0.056-0.123,0.091-0.189l2.511,2.511l-4.355,1.936L4.388,19.59z"/>
</g>
</svg>
